<?xml version="1.0" encoding="UTF-8" standalone="no"?><svg xmlns="http://www.w3.org/2000/svg" xmlns:xlink="http://www.w3.org/1999/xlink" contentStyleType="text/css" height="199px" preserveAspectRatio="none" style="width:1199px;height:199px;background:#FFFFFF;" version="1.1" viewBox="0 0 1199 199" width="1199px" zoomAndPan="magnify"><defs/><g><!--MD5=[11468c77767568c9efff235ac1ebc746]
entity Artisan--><g id="elem_Artisan"><ellipse cx="1013" cy="127" fill="#F1F1F1" rx="8" ry="8" style="stroke:#181818;stroke-width:0.5;"/><path d="M1013,135 L1013,162 M1000,143 L1026,143 M1013,162 L1000,177 M1013,162 L1026,177 " fill="none" style="stroke:#181818;stroke-width:0.5;"/><text fill="#000000" font-family="sans-serif" font-size="14" lengthAdjust="spacing" textLength="51" x="987.5" y="191.4951">Artisan</text></g><!--MD5=[4206b647878100e6066f92523e03a5d6]
entity Entreprise--><g id="elem_Entreprise"><ellipse cx="44" cy="79" fill="#F1F1F1" rx="8" ry="8" style="stroke:#181818;stroke-width:0.5;"/><path d="M44,87 L44,114 M31,95 L57,95 M44,114 L31,129 M44,114 L57,129 " fill="none" style="stroke:#181818;stroke-width:0.5;"/><text fill="#000000" font-family="sans-serif" font-size="14" lengthAdjust="spacing" textLength="76" x="6" y="143.4951">Entreprise</text></g><g id="elem_gererChantiers"><ellipse cx="230.7915" cy="66.6583" fill="#F1F1F1" rx="88.7915" ry="20.1583" style="stroke:#181818;stroke-width:0.5;"/><text fill="#000000" font-family="sans-serif" font-size="14" lengthAdjust="spacing" textLength="139" x="161.2915" y="69.505">Gérer ses chantiers</text></g><g id="elem_gererArtisans"><ellipse cx="576.495" cy="156.699" fill="#F1F1F1" rx="83.995" ry="19.199" style="stroke:#181818;stroke-width:0.5;"/><text fill="#000000" font-family="sans-serif" font-size="14" lengthAdjust="spacing" textLength="128" x="512.2335" y="159.6356">Gérer ses artisans</text></g><g id="elem_gererArtisansChantiers"><ellipse cx="576.3415" cy="60.6683" fill="#F1F1F1" rx="196.3415" ry="41.6683" style="stroke:#181818;stroke-width:0.5;"/><text fill="#000000" font-family="sans-serif" font-size="14" lengthAdjust="spacing" textLength="366" x="393.3415" y="63.515">Gérer quels artisans sont affectés à quels chantiers</text></g><g id="elem_calcPayeArtisan"><ellipse cx="1013.2461" cy="44.4492" fill="#F1F1F1" rx="180.2461" ry="38.4492" style="stroke:#181818;stroke-width:0.5;"/><text fill="#000000" font-family="sans-serif" font-size="14" lengthAdjust="spacing" textLength="333" x="846.7461" y="47.2959">Calculer automatiquement la paye d'un artisan</text></g><!--MD5=[28f77cbca4108c424dabedb9583b18c4]
link Entreprise to gererArtisans--><g id="link_Entreprise_gererArtisans"><path d="M82.3037,111.8753 C167.126,119.5501 376.141,138.4619 493.017,149.0369 " fill="none" id="Entreprise-to-gererArtisans" style="stroke:#181818;stroke-width:1.0;"/><polygon fill="#181818" points="498.168,149.5029,489.5659,144.7067,493.1884,149.0515,488.8436,152.674,498.168,149.5029" style="stroke:#181818;stroke-width:1.0;"/></g><!--MD5=[c7bb4689d08554443148ddd283094e5e]
link Entreprise to gererChantiers--><g id="link_Entreprise_gererChantiers"><path d="M82.4375,100.0007 C105.4971,94.7655 135.735,87.901 162.83,81.749 " fill="none" id="Entreprise-to-gererChantiers" style="stroke:#181818;stroke-width:1.0;"/><polygon fill="#181818" points="167.851,80.61,158.1887,78.7022,162.9751,81.7172,159.9602,86.5036,167.851,80.61" style="stroke:#181818;stroke-width:1.0;"/></g><!--MD5=[d034be36abaaf484a8cfc21fb9a62b57]
link gererChantiers to gererArtisansChantiers--><g id="link_gererChantiers_gererArtisansChantiers"><path d="M320.014,64.963 C337.184,64.663 355.832,64.337 374.972,64.003 " fill="none" id="gererChantiers-to-gererArtisansChantiers" style="stroke:#181818;stroke-width:1.0;"/><polygon fill="#181818" points="380.382,63.908,371.3125,60.0681,375.3828,63.9966,371.4543,68.0668,380.382,63.908" style="stroke:#181818;stroke-width:1.0;"/></g><!--MD5=[dfbb4a2d6aff732ca51e8236db55448a]
link gererArtisans to Artisan--><g id="link_gererArtisans_Artisan"><path d="M660.505,156.5 C758.495,156.5 916.411,156.5 981.973,156.5 " fill="none" id="gererArtisans-to-Artisan" style="stroke:#181818;stroke-width:1.0;"/><polygon fill="#181818" points="987.28,156.5,978.28,152.5,982.28,156.5,978.28,160.5,987.28,156.5" style="stroke:#181818;stroke-width:1.0;"/></g><!--MD5=[180340f028e95da12f8e8d652d761fa2]
link gererArtisansChantiers to Artisan--><g id="link_gererArtisansChantiers_Artisan"><path d="M712.894,90.414 C807.957,111.4179 927.511,137.8326 982.21,149.9181 " fill="none" id="gererArtisansChantiers-to-Artisan" style="stroke:#181818;stroke-width:1.0;"/><polygon fill="#181818" points="987.298,151.0422,979.3728,145.1949,982.4157,149.9636,977.647,153.0065,987.298,151.0422" style="stroke:#181818;stroke-width:1.0;"/></g><!--MD5=[5eebc26850bd630c450aab0d0c3779ce]
link gererArtisansChantiers to calcPayeArtisan--><g id="link_gererArtisansChantiers_calcPayeArtisan"><path d="M770.292,53.401 C790.261,52.665 810.509,51.92 830.351,51.189 " fill="none" id="gererArtisansChantiers-to-calcPayeArtisan" style="stroke:#181818;stroke-width:1.0;"/><polygon fill="#181818" points="835.386,51.004,826.2447,47.3384,830.3894,51.1883,826.5395,55.333,835.386,51.004" style="stroke:#181818;stroke-width:1.0;"/></g><!--MD5=[86792381d81986ee6fd824faa563a6d5]
link calcPayeArtisan to Artisan--><g id="link_calcPayeArtisan_Artisan"><path d="M1013,83.202 C1013,93.204 1013,103.2053 1013,113.2072 " fill="none" id="calcPayeArtisan-to-Artisan" style="stroke:#181818;stroke-width:1.0;"/><polygon fill="#181818" points="1013,118.4375,1017,109.4375,1013,113.4375,1009,109.4375,1013,118.4375" style="stroke:#181818;stroke-width:1.0;"/></g><!--MD5=[c626b49081b770615ba8f5fe59479e11]
@startuml
left to right direction

actor Artisan
actor Entreprise

usecase gererChantiers as "Gérer ses chantiers"
usecase gererArtisans as "Gérer ses artisans"
usecase gererArtisansChantiers as "Gérer quels artisans sont affectés à quels chantiers"
usecase calcPayeArtisan as "Calculer automatiquement la paye d'un artisan"

Entreprise - -> gererArtisans
Entreprise - -> gererChantiers

gererChantiers - -> gererArtisansChantiers

gererArtisans - -> Artisan
gererArtisansChantiers - -> Artisan

gererArtisansChantiers -> calcPayeArtisan
calcPayeArtisan -> Artisan
@enduml

PlantUML version 1.2022.3beta2(Unknown compile time)
(GPL source distribution)
Java Runtime: Java(TM) SE Runtime Environment
JVM: Java HotSpot(TM) 64-Bit Server VM
Default Encoding: UTF-8
Language: en
Country: US
--></g></svg>